# xmcd
#
# Track frame offsets:
#	150
#	13926
#	27263
#	41570
#	53489
#	69131
#	82772
#	93290
#	107820
#	123235
#	137206
#	150645
#	165709
#	179805
#	192320
#	209793
#	221680
#	234384
#
# Disc length: 3364 seconds
#
# Revision: 1
# Processed by: cddbd v1.5.1PL0 Copyright (c) Steve Scherf et al.
# Submitted via: audiograbber 1.82.02
#
DISCID=f70d2212
DTITLE=Rex Dallas - Aussie Yodels
DYEAR=1900
DGENRE=Country
TTITLE0=I Learn't To Yodel
TTITLE1=Scotties The Yodeller
TTITLE2=Yodelling Buckhouse Boy
TTITLE3=Yodelling Rag Man
TTITLE4=Lonesome Yodeller
TTITLE5=Crazy Yodel
TTITLE6=Honneymoon Yodel
TTITLE7=Dwan's Yodel Song
TTITLE8=The Nursery Rhyme Yodel
TTITLE9=Yodelling To You
TTITLE10=Mountain Spook Yodel
TTITLE11=Gone But Not Forgotten
TTITLE12=The Centre
TTITLE13=Mountain Girl Yodel
TTITLE14=All In The Family
TTITLE15=The Mermaid
TTITLE16=Three Legged Man
TTITLE17=Gotta' Get Rid Of The Band
EXTD=
EXTT0=
EXTT1=
EXTT2=
EXTT3=
EXTT4=
EXTT5=
EXTT6=
EXTT7=
EXTT8=
EXTT9=
EXTT10=
EXTT11=
EXTT12=
EXTT13=
EXTT14=
EXTT15=
EXTT16=
EXTT17=
PLAYORDER=
